<svg width="262" height="120" viewBox="0 0 262 120" fill="none" xmlns="http://www.w3.org/2000/svg"><g clip-path="url(#a)" fill="#fff"><path d="M154.797 45.757l-8.643 16.196-8.837-16.196h-5.387l-4.728 35.529h6.705l3.1-23.75 8.837 16.117 9.341-16.815 3.1 24.448h6.473l-4.612-35.529h-5.349zm25.309 0l-12.674 35.529h6.705l3.062-8.601h11.898l3.023 8.601h6.705l-12.596-35.568h-6.123v.04zm-.659 20.651l3.759-10.5 3.721 10.5h-7.48zm47.129-4.184c1.046-1.589 1.589-3.681 1.589-6.238 0-6.82-4.07-10.267-12.209-10.267h-12.984v35.567h6.512V68.074h6.588l7.209 13.212h6.938l-8.139-14.878c1.938-1.201 3.449-2.596 4.496-4.184zm-6.705-1.628c-1.008.93-2.907 1.434-5.659 1.434h-4.767V51.22h5.038c2.636 0 4.458.426 5.426 1.279.969.852 1.473 2.208 1.473 3.99.039 1.783-.465 3.139-1.511 4.107zm21.665 14.414v-9.106h12.402v-6.276h-12.402v-7.594h16.007v-6.277h-22.751v35.529h23.255v-6.277h-16.511zM57.012 4.417h-.62v21.387h.62c19.108 0 34.61 15.498 34.61 34.599C91.623 79.503 76.12 95 57.013 95c-16.084 0-29.572-10.964-33.486-25.803l-20.62 5.54c6.318 23.983 28.177 41.651 54.145 41.651 30.928 0 56.004-25.068 56.004-55.986-.038-30.918-25.115-55.986-56.043-55.986z"/><path d="M49.61 66.99l.232-2.79 1.822-20.729h-.04c-5.464 0-10.347 4.262-11.2 9.648l-.116 1.472-.194 2.053-1.822 20.768c5.775-.04 10.814-4.689 11.317-10.423zm26.16-2.79l1.822-20.729h-.038c-5.504 0-10.349 4.262-11.201 9.648l-.117 1.472-.193 2.053-1.822 20.768c5.736 0 10.775-4.65 11.278-10.384l.272-2.828zm-13.216 2.79l.233-2.79 1.822-20.729h-.04c-5.503 0-10.347 4.262-11.2 9.648l-.116 1.472-.194 2.053-1.822 20.768c5.775-.04 10.814-4.689 11.317-10.423zm72.237 43.138h.778l6.688-14.18-.026 16.85h.856V93.355h-.545l-7.362 15.839-7.362-15.839h-.544v19.443h.855l-.026-16.85 6.688 14.18zm16.436-9.722c3.136 0 3.914.985 3.914 3.422v.933l-4.277.26c-3.604.233-4.537 1.97-4.537 3.94 0 2.074 1.167 3.966 4.511 3.966 1.296 0 3.292-.363 4.381-1.14l.363 1.011h.388v-8.944c0-2.54-.777-4.147-4.743-4.147-1.53 0-3.007.285-3.733.544v.7c.492-.182 1.892-.545 3.733-.545zm3.914 5.029v5.6a8.186 8.186 0 0 1-4.251 1.192c-3.163 0-3.759-1.737-3.759-3.266 0-1.711.803-3.033 3.422-3.214l4.588-.312zm9.441-5.728c-4.303 0-5.366 2.877-5.366 6.61 0 3.733 1.063 6.61 5.366 6.61 1.477 0 3.396-.389 4.536-1.14l.363 1.011h.337V93.355h-.777v7.44c-1.141-.726-3.008-1.088-4.459-1.088zm0 12.52c-3.863 0-4.563-2.981-4.563-5.91 0-2.929.7-5.911 4.563-5.911 1.814 0 3.292.363 4.459 1.089v9.644c-1.167.725-2.645 1.088-4.459 1.088zm13.974 0c-3.707 0-4.511-2.618-4.563-5.547h9.333v-.363c0-3.811-.467-6.61-4.77-6.61s-5.366 2.747-5.366 6.61c0 3.862 1.063 6.61 5.366 6.61 1.4 0 3.111-.259 4.122-.648v-.7c-.96.311-2.204.648-4.122.648zm-4.563-6.273c.052-2.929.856-5.548 4.563-5.548s3.992 2.722 3.992 5.548h-8.555zm15.418 6.351c-.933 0-1.193-.337-1.193-1.322V99.836h-.777v11.199c0 1.27.596 1.892 1.97 1.892v-.622zm-2.359-16.357c0 .44.337.777.778.777a.78.78 0 0 0 .777-.777.797.797 0 0 0-.777-.778.78.78 0 0 0-.778.778zm12.449 3.836a8.766 8.766 0 0 0-1.218-.078c-1.478 0-3.474.415-4.615 1.141l-.363-1.01h-.388v12.961h.829v-11.329c1.167-.726 2.722-1.063 4.537-1.063.44 0 .855.026 1.218.078v-.7zm6.584.622c3.137 0 3.914.985 3.914 3.422v.933l-4.277.26c-3.603.233-4.536 1.97-4.536 3.94 0 2.074 1.166 3.966 4.51 3.966 1.296 0 3.292-.363 4.381-1.14l.363 1.011h.389v-8.944c0-2.54-.778-4.147-4.744-4.147-1.529 0-3.007.285-3.733.544v.7c.493-.182 1.893-.545 3.733-.545zm3.914 5.029v5.6a8.183 8.183 0 0 1-4.251 1.192c-3.163 0-3.759-1.737-3.759-3.266 0-1.711.804-3.033 3.422-3.214l4.588-.312z"/></g><defs><clipPath id="a"><path fill="#fff" d="M0 0h262v119.721H0z"/></clipPath></defs></svg>